<svg xmlns="http://www.w3.org/2000/svg" xmlns:xlink="http://www.w3.org/1999/xlink" width="500" zoomAndPan="magnify" viewBox="0 0 375 374.999991" height="500" preserveAspectRatio="xMidYMid meet" version="1.0"><defs><clipPath id="fffc19deca"><path d="M 112.5 83.140625 L 187.5 83.140625 L 187.5 216.640625 L 112.5 216.640625 Z M 112.5 83.140625 " clip-rule="nonzero"/></clipPath><clipPath id="df731e78e0"><path d="M 187.5 142.363281 L 187.5 128.800781 L 112.5 128.800781 L 112.5 171.011719 L 187.5 171.011719 L 187.5 142.363281 M 112.5 171.011719 L 187.5 216.492188 L 187.5 171.011719 L 112.5 171.011719 M 112.5 83.324219 L 187.5 83.324219 L 187.5 128.800781 L 112.5 128.800781 L 112.5 83.324219 " clip-rule="nonzero"/></clipPath><clipPath id="38b214f12d"><path d="M 187.5 83.140625 L 262.5 83.140625 L 262.5 216.640625 L 187.5 216.640625 Z M 187.5 83.140625 " clip-rule="nonzero"/></clipPath><clipPath id="34cdc9ee5f"><path d="M 187.5 128.800781 L 187.5 171.011719 L 262.5 171.011719 L 262.5 128.800781 L 187.5 128.800781 M 187.5 83.324219 L 262.5 83.324219 L 262.5 128.800781 L 187.5 128.800781 L 187.5 83.324219 M 187.5 216.492188 L 262.5 171.011719 L 187.5 171.011719 L 187.5 216.492188 " clip-rule="nonzero"/></clipPath><clipPath id="ef5fe0a507"><path d="M 112.5 37.84375 L 262.5 37.84375 L 262.5 129 L 112.5 129 Z M 112.5 37.84375 " clip-rule="nonzero"/></clipPath><clipPath id="b910be1de5"><path d="M 187.5 128.800781 L 112.5 83.324219 L 187.5 37.84375 L 262.5 83.324219 L 187.5 128.800781 " clip-rule="nonzero"/></clipPath><clipPath id="49c18d8839"><path d="M 38.25 215 L 113.25 215 L 113.25 348.328125 L 38.25 348.328125 Z M 38.25 215 " clip-rule="nonzero"/></clipPath><clipPath id="5e5cf5870d"><path d="M 113.25 274.046875 L 113.25 260.488281 L 38.25 260.488281 L 38.25 302.699219 L 113.25 302.699219 L 113.25 274.046875 M 38.25 302.699219 L 113.25 348.179688 L 113.25 302.699219 L 38.25 302.699219 M 38.25 215.007812 L 113.25 215.007812 L 113.25 260.488281 L 38.25 260.488281 L 38.25 215.007812 " clip-rule="nonzero"/></clipPath><clipPath id="48fb07ed27"><path d="M 113.25 215 L 188.25 215 L 188.25 348.328125 L 113.25 348.328125 Z M 113.25 215 " clip-rule="nonzero"/></clipPath><clipPath id="faaf570486"><path d="M 113.25 260.488281 L 113.25 302.699219 L 188.25 302.699219 L 188.25 260.488281 L 113.25 260.488281 M 113.25 215.007812 L 188.25 215.007812 L 188.25 260.488281 L 113.25 260.488281 L 113.25 215.007812 M 113.25 348.179688 L 188.25 302.699219 L 113.25 302.699219 L 113.25 348.179688 " clip-rule="nonzero"/></clipPath><clipPath id="aae93082d1"><path d="M 38.25 169.527344 L 188.25 169.527344 L 188.25 260.726562 L 38.25 260.726562 Z M 38.25 169.527344 " clip-rule="nonzero"/></clipPath><clipPath id="52f977d16c"><path d="M 113.25 260.488281 L 38.25 215.007812 L 113.25 169.527344 L 188.25 215.007812 L 113.25 260.488281 " clip-rule="nonzero"/></clipPath><clipPath id="fdbbbfcca3"><path d="M 186.75 215 L 261.75 215 L 261.75 348.328125 L 186.75 348.328125 Z M 186.75 215 " clip-rule="nonzero"/></clipPath><clipPath id="b922845f11"><path d="M 261.75 274.046875 L 261.75 260.488281 L 186.75 260.488281 L 186.75 302.699219 L 261.75 302.699219 L 261.75 274.046875 M 186.75 302.699219 L 261.75 348.179688 L 261.75 302.699219 L 186.75 302.699219 M 186.75 215.007812 L 261.75 215.007812 L 261.75 260.488281 L 186.75 260.488281 L 186.75 215.007812 " clip-rule="nonzero"/></clipPath><clipPath id="d20de9e7bb"><path d="M 261.75 215 L 336.75 215 L 336.75 348.328125 L 261.75 348.328125 Z M 261.75 215 " clip-rule="nonzero"/></clipPath><clipPath id="6fc8fc22e3"><path d="M 261.75 260.488281 L 261.75 302.699219 L 336.75 302.699219 L 336.75 260.488281 L 261.75 260.488281 M 261.75 215.007812 L 336.75 215.007812 L 336.75 260.488281 L 261.75 260.488281 L 261.75 215.007812 M 261.75 348.179688 L 336.75 302.699219 L 261.75 302.699219 L 261.75 348.179688 " clip-rule="nonzero"/></clipPath><clipPath id="90828cfb52"><path d="M 186.75 169.527344 L 336.75 169.527344 L 336.75 260.726562 L 186.75 260.726562 Z M 186.75 169.527344 " clip-rule="nonzero"/></clipPath><clipPath id="82d5595cfb"><path d="M 261.75 260.488281 L 186.75 215.007812 L 261.75 169.527344 L 336.75 215.007812 L 261.75 260.488281 " clip-rule="nonzero"/></clipPath></defs><g clip-path="url(#fffc19deca)"><g clip-path="url(#df731e78e0)"><path fill="#456990" d="M 112.5 37.84375 L 262.5 37.84375 L 262.5 216.640625 L 112.5 216.640625 Z M 112.5 37.84375 " fill-opacity="1" fill-rule="nonzero"/></g></g><g clip-path="url(#38b214f12d)"><g clip-path="url(#34cdc9ee5f)"><path fill="#71c1e8" d="M 112.5 37.84375 L 262.5 37.84375 L 262.5 216.640625 L 112.5 216.640625 Z M 112.5 37.84375 " fill-opacity="1" fill-rule="nonzero"/></g></g><g clip-path="url(#ef5fe0a507)"><g clip-path="url(#b910be1de5)"><path fill="#427898" d="M 112.5 37.84375 L 262.5 37.84375 L 262.5 216.640625 L 112.5 216.640625 Z M 112.5 37.84375 " fill-opacity="1" fill-rule="nonzero"/></g></g><g clip-path="url(#49c18d8839)"><g clip-path="url(#5e5cf5870d)"><path fill="#456990" d="M 38.25 169.527344 L 188.25 169.527344 L 188.25 348.328125 L 38.25 348.328125 Z M 38.25 169.527344 " fill-opacity="1" fill-rule="nonzero"/></g></g><g clip-path="url(#48fb07ed27)"><g clip-path="url(#faaf570486)"><path fill="#71c1e8" d="M 38.25 169.527344 L 188.25 169.527344 L 188.25 348.328125 L 38.25 348.328125 Z M 38.25 169.527344 " fill-opacity="1" fill-rule="nonzero"/></g></g><g clip-path="url(#aae93082d1)"><g clip-path="url(#52f977d16c)"><path fill="#427898" d="M 38.25 169.527344 L 188.25 169.527344 L 188.25 348.328125 L 38.25 348.328125 Z M 38.25 169.527344 " fill-opacity="1" fill-rule="nonzero"/></g></g><g clip-path="url(#fdbbbfcca3)"><g clip-path="url(#b922845f11)"><path fill="#456990" d="M 186.75 169.527344 L 336.75 169.527344 L 336.75 348.328125 L 186.75 348.328125 Z M 186.75 169.527344 " fill-opacity="1" fill-rule="nonzero"/></g></g><g clip-path="url(#d20de9e7bb)"><g clip-path="url(#6fc8fc22e3)"><path fill="#71c1e8" d="M 186.75 169.527344 L 336.75 169.527344 L 336.75 348.328125 L 186.75 348.328125 Z M 186.75 169.527344 " fill-opacity="1" fill-rule="nonzero"/></g></g><g clip-path="url(#90828cfb52)"><g clip-path="url(#82d5595cfb)"><path fill="#427898" d="M 186.75 169.527344 L 336.75 169.527344 L 336.75 348.328125 L 186.75 348.328125 Z M 186.75 169.527344 " fill-opacity="1" fill-rule="nonzero"/></g></g></svg>